<svg width="1280" height="800" viewBox="0 0 1280 800" xmlns="http://www.w3.org/2000/svg">
  <defs>
    <linearGradient id="bg" x1="0" y1="0" x2="1280" y2="800" gradientUnits="userSpaceOnUse">
      <stop offset="0" stop-color="#f0faf8"/>
      <stop offset="1" stop-color="#d3ede9"/>
    </linearGradient>
    <radialGradient id="blob1" cx="0.5" cy="0.5" r="0.5">
      <stop offset="0" stop-color="#5eead4" stop-opacity="0.5"/>
      <stop offset="1" stop-color="#5eead4" stop-opacity="0"/>
    </radialGradient>
    <linearGradient id="btn" x1="0" y1="0" x2="0" y2="1">
      <stop offset="0" stop-color="#16b8a6"/>
      <stop offset="1" stop-color="#0d9488"/>
    </linearGradient>
    <linearGradient id="icg" x1="0" y1="0" x2="1" y2="1">
      <stop offset="0" stop-color="#5eead4"/>
      <stop offset="0.5" stop-color="#14b8a6"/>
      <stop offset="1" stop-color="#0b7d70"/>
    </linearGradient>
  </defs>

  <rect width="1280" height="800" fill="url(#bg)"/>
  <circle cx="1120" cy="120" r="360" fill="url(#blob1)"/>
  <circle cx="120" cy="760" r="300" fill="url(#blob1)"/>

  <g transform="translate(96,96)">
    <g transform="scale(0.42)">
      <rect width="128" height="128" rx="29" fill="url(#icg)"/>
      <g fill="none" stroke="#ffffff" stroke-linecap="round" stroke-linejoin="round">
        <circle cx="52" cy="52" r="30" stroke-width="10"/>
        <path d="M39 53 l9 10 l17 -21" stroke-width="9"/>
        <line x1="74" y1="74" x2="99" y2="99" stroke-width="14"/>
      </g>
    </g>
    <text x="70" y="38" font-family="Segoe UI, sans-serif" font-size="30" font-weight="800" letter-spacing="-1"><tspan fill="#0d9488">Re</tspan><tspan fill="#0e2a28">Check</tspan></text>
  </g>

  <text x="96" y="278" font-family="Segoe UI, Malgun Gothic, sans-serif" font-size="58" font-weight="800" fill="#0e2a28" letter-spacing="-1.5">읽었다 ≠ 이해했다</text>
  <text x="98" y="336" font-family="Segoe UI, Malgun Gothic, sans-serif" font-size="25" fill="#3f5f5d">AI가 답 대신 질문·힌트를 던지고,</text>
  <text x="98" y="372" font-family="Segoe UI, Malgun Gothic, sans-serif" font-size="25" fill="#3f5f5d">원문 문단으로 돌아가 스스로 되짚게 한다.</text>

  <g font-family="Segoe UI, Malgun Gothic, sans-serif" font-size="22" fill="#0e2a28">
    <g transform="translate(100,442)">
      <circle cx="16" cy="-7" r="16" fill="#d5f2ec"/>
      <path d="M9 -7 l5 5 l9 -11" fill="none" stroke="#0d9488" stroke-width="3.4" stroke-linecap="round" stroke-linejoin="round"/>
      <text x="44" y="0" font-weight="600">원문 근거 질문 + 3단계 힌트</text>
    </g>
    <g transform="translate(100,498)">
      <circle cx="16" cy="-7" r="16" fill="#d5f2ec"/>
      <path d="M9 -7 l5 5 l9 -11" fill="none" stroke="#0d9488" stroke-width="3.4" stroke-linecap="round" stroke-linejoin="round"/>
      <text x="44" y="0" font-weight="600">‘원문에서 확인’으로 근거 문단 이동</text>
    </g>
    <g transform="translate(100,554)">
      <circle cx="16" cy="-7" r="16" fill="#d5f2ec"/>
      <path d="M9 -7 l5 5 l9 -11" fill="none" stroke="#0d9488" stroke-width="3.4" stroke-linecap="round" stroke-linejoin="round"/>
      <text x="44" y="0" font-weight="600">8개 언어 · Claude · GPT · Gemini</text>
    </g>
  </g>

  <rect x="100" y="616" width="330" height="42" rx="21" fill="#ffffff" stroke="#c8e6df"/>
  <text x="124" y="643" font-family="Segoe UI, Malgun Gothic, sans-serif" font-size="16" fill="#0f766e" font-weight="600">서버 없음 · 키는 브라우저에만 저장</text>

  <rect x="732" y="142" width="452" height="540" rx="24" fill="#0d9488" opacity="0.14"/>
  <rect x="724" y="130" width="452" height="540" rx="24" fill="#ffffff" stroke="#dbe7e7"/>

  <text x="756" y="188" font-family="Segoe UI, sans-serif" font-size="24" font-weight="800" letter-spacing="-0.5"><tspan fill="#0d9488">Re</tspan><tspan fill="#0e2a28">Check</tspan></text>
  <text x="1144" y="186" text-anchor="end" font-family="Segoe UI, Malgun Gothic, sans-serif" font-size="15" font-weight="600" fill="#0d9488">설정</text>

  <rect x="756" y="206" width="388" height="50" rx="12" fill="url(#btn)"/>
  <text x="950" y="238" text-anchor="middle" font-family="Segoe UI, Malgun Gothic, sans-serif" font-size="19" font-weight="700" fill="#ffffff">이 글, 다시 짚어보기</text>

  <rect x="756" y="272" width="180" height="32" rx="8" fill="#e6f5f2" stroke="#b7e6de"/>
  <text x="770" y="294" font-family="Segoe UI, Malgun Gothic, sans-serif" font-size="15" font-weight="600" fill="#0f766e">본문 전체 1,439자</text>

  <rect x="756" y="320" width="104" height="28" rx="14" fill="#e6f5f2" stroke="#b7e6de"/>
  <text x="770" y="339" font-family="Segoe UI, Malgun Gothic, sans-serif" font-size="14" font-weight="700" fill="#0f766e">모드: 검증</text>

  <rect x="756" y="364" width="388" height="272" rx="16" fill="#ffffff" stroke="#dbe7e7"/>
  <text x="784" y="408" font-family="Segoe UI, Malgun Gothic, sans-serif" font-size="20" font-weight="700" fill="#0e2a28"><tspan fill="#0d9488" font-weight="800">Q1.</tspan> 대법원이 원심 판결을</text>
  <text x="784" y="438" font-family="Segoe UI, Malgun Gothic, sans-serif" font-size="20" font-weight="700" fill="#0e2a28">확정한 이유는 무엇인가?</text>

  <rect x="784" y="462" width="332" height="76" rx="9" fill="#f2faf8"/>
  <rect x="784" y="462" width="4" height="76" fill="#0d9488"/>
  <text x="802" y="490" font-family="Segoe UI, Malgun Gothic, sans-serif" font-size="16" fill="#12403b">대법원의 판단 근거가 원문 어디에</text>
  <text x="802" y="515" font-family="Segoe UI, Malgun Gothic, sans-serif" font-size="16" fill="#12403b">적혀 있는지 짚어 보세요.</text>

  <line x1="784" y1="570" x2="1116" y2="570" stroke="#dbe7e7"/>
  <g transform="translate(786,592)">
    <rect x="0" y="-12" width="16" height="20" rx="2.5" fill="none" stroke="#0d9488" stroke-width="2.2"/>
    <line x1="4" y1="-6" x2="12" y2="-6" stroke="#0d9488" stroke-width="2.2"/>
    <line x1="4" y1="-1" x2="12" y2="-1" stroke="#0d9488" stroke-width="2.2"/>
    <text x="28" y="3" font-family="Segoe UI, Malgun Gothic, sans-serif" font-size="16" font-weight="600" fill="#0d9488">원문에서 확인</text>
  </g>
</svg>
